<svg xmlns="http://www.w3.org/2000/svg" width="64" height="54.664" viewBox="0 0 64 54.664">
  <g id="_x31_" transform="translate(0 -4.668)">
    <path id="Tracé_2" data-name="Tracé 2" d="M62.174,35.144a26.362,26.362,0,0,0-20.986-25.6,5.351,5.351,0,0,0-10.66,0A26.362,26.362,0,0,0,9.552,34.551C4.84,36.489-.438,39.228.029,41.633c.307,1.581,2.336,2.226,7,2.226H22.155l11.6,14.318a3.092,3.092,0,0,0,2.158,1.145c.081.006.162.01.243.01a3.1,3.1,0,0,0,2.071-.8L54.3,43.859H64V38.732A4.44,4.44,0,0,0,62.174,35.144ZM32.717,9A3.3,3.3,0,0,1,39,9Zm3.141,2.051A24.3,24.3,0,0,1,60.1,34.289H11.613A24.3,24.3,0,0,1,35.858,11.048Zm.986,45.969a1.03,1.03,0,0,1-1.495-.125L24.794,43.859h2.8l8.76,10.689L48.007,43.859h3.252Zm-6.6-13.158H44.974l-8.408,7.712Zm31.7-2.051H7.032c-3.541,0-4.634-.427-4.935-.6.528-.977,4.339-3.166,8.5-4.864H59.557a2.4,2.4,0,0,1,2.392,2.392v3.076Z" fill="#6a80b9"/>
  </g>
</svg>
