<svg xmlns="http://www.w3.org/2000/svg" width="39.452" height="64" viewBox="0 0 39.452 64">
  <g id="_x38_" transform="translate(-12.274 0)">
    <path id="Tracé_6" data-name="Tracé 6" d="M51.687,53.47l-.058-.427c-.254-1.878-.93-6.866-1.6-9.917-.763-3.456-.167-9.82.522-17.189.5-5.3,1.06-11.317,1.148-16.971.06-3.838-1.569-6.724-4.587-8.128-3.536-1.646-8.445-.807-11.668,2-3.177,2.763-4.225,6.883-2.877,11.3,4.212,13.805,1.915,22.856-1.194,30.58-1.672,4.154-8.677,7.493-13.312,9.7-4,1.907-5.827,2.777-5.677,4.2a1.3,1.3,0,0,0,.106.4,8.313,8.313,0,0,1-.077,2.831l-.135.639.55.354C13.864,63.5,19.284,64,24.441,64c4.18,0,8.187-.327,9.548-1.153a22.53,22.53,0,0,1,6.665-2.181V63.1l11.069-1.258-.216-6.693A3.086,3.086,0,0,0,51.687,53.47Zm-1.88.258a1.586,1.586,0,0,1-.005.591,51.98,51.98,0,0,0-7.708.593c.379-6.553,4.147-9.511,6.23-10.653.606,3,1.192,7.325,1.425,9.039ZM43.47,1.9a61.406,61.406,0,0,1-.528,11.243A61.137,61.137,0,0,1,41.641,2,9.254,9.254,0,0,1,43.47,1.9Zm-24.6,54.235c5.194-2.475,12.308-5.866,14.256-10.706,3.239-8.047,5.632-17.473,1.249-31.842-1.534-5.028.787-8,2.307-9.318a9.732,9.732,0,0,1,3.079-1.786,79.663,79.663,0,0,0,.843,8.688c.6,3.61,1.245,4.97,2.386,4.97h.051c1.172-.04,1.738-1.43,2.088-5.125a79.85,79.85,0,0,0,.242-8.8,6.837,6.837,0,0,1,.935.347c1.625.756,3.55,2.476,3.489,6.378-.087,5.581-.646,11.554-1.139,16.824-.634,6.771-1.187,12.7-.69,16.557A13.6,13.6,0,0,0,44.6,44.683a14.867,14.867,0,0,0-4.417,10.586,24.87,24.87,0,0,0-3.7,1.076C30.849,58.518,21.2,59.855,14.8,58.334l-.129-.032A41.905,41.905,0,0,1,18.873,56.131Zm23.678,4.843V58.452l-1.08.151c-.22.031-5.424.776-8.466,2.622-2.424,1.473-15.515.85-18.6.18a9.98,9.98,0,0,0,.068-1.206,30.222,30.222,0,0,0,6.767.694,47.717,47.717,0,0,0,15.928-2.779c4.213-1.626,9.8-1.881,12.48-1.9l.127,3.936Z" fill="#6a80b9"/>
  </g>
</svg>
