<svg id="Calque_1" data-name="Calque 1" xmlns="http://www.w3.org/2000/svg" xmlns:xlink="http://www.w3.org/1999/xlink" viewBox="0 0 101.2 90.8"><defs><style>.cls-1{fill:url(#Dégradé_sans_nom);}.cls-2{fill:url(#Dégradé_sans_nom_2);}.cls-3{fill:url(#Dégradé_sans_nom_3);}.cls-4{fill:url(#Dégradé_sans_nom_4);}.cls-5{fill:url(#Dégradé_sans_nom_5);}.cls-6{fill:url(#Dégradé_sans_nom_6);}.cls-7{fill:url(#Dégradé_sans_nom_7);}.cls-8{fill:url(#Dégradé_sans_nom_8);}.cls-9{fill:url(#Dégradé_sans_nom_9);}.cls-10{fill:url(#Dégradé_sans_nom_10);}.cls-11{fill:url(#Dégradé_sans_nom_11);}</style><linearGradient id="Dégradé_sans_nom" x1="23.8" y1="46.32" x2="23.8" y2="25.7" gradientTransform="matrix(1, 0, 0, -1, 0, 144)" gradientUnits="userSpaceOnUse"><stop offset="0" stop-color="#5f549f"/><stop offset="0.51" stop-color="#567fc0"/><stop offset="1" stop-color="#dadada"/></linearGradient><linearGradient id="Dégradé_sans_nom_2" x1="34.35" y1="46.32" x2="34.35" y2="25.7" xlink:href="#Dégradé_sans_nom"/><linearGradient id="Dégradé_sans_nom_3" x1="43.95" y1="46.32" x2="43.95" y2="25.7" xlink:href="#Dégradé_sans_nom"/><linearGradient id="Dégradé_sans_nom_4" x1="53.15" y1="46.32" x2="53.15" y2="25.7" xlink:href="#Dégradé_sans_nom"/><linearGradient id="Dégradé_sans_nom_5" x1="64.1" y1="46.32" x2="64.1" y2="25.7" xlink:href="#Dégradé_sans_nom"/><linearGradient id="Dégradé_sans_nom_6" x1="74" y1="46.32" x2="74" y2="25.7" xlink:href="#Dégradé_sans_nom"/><linearGradient id="Dégradé_sans_nom_7" x1="84.85" y1="46.32" x2="84.85" y2="25.7" xlink:href="#Dégradé_sans_nom"/><linearGradient id="Dégradé_sans_nom_8" x1="95.2" y1="46.32" x2="95.2" y2="25.7" xlink:href="#Dégradé_sans_nom"/><linearGradient id="Dégradé_sans_nom_9" x1="106.3" y1="46.32" x2="106.3" y2="25.7" xlink:href="#Dégradé_sans_nom"/><linearGradient id="Dégradé_sans_nom_10" x1="117.6" y1="46.32" x2="117.6" y2="25.7" xlink:href="#Dégradé_sans_nom"/><radialGradient id="Dégradé_sans_nom_11" cx="47.22" cy="59.28" r="78.22" gradientTransform="matrix(1, 0, 0, -1, 0, 144)" xlink:href="#Dégradé_sans_nom"/></defs><path class="cls-1" d="M21.3,111.2a3.38,3.38,0,0,1-1-2.5v-5.6a3.32,3.32,0,0,1,1-2.5,3.24,3.24,0,0,1,2.5-.9,3.26,3.26,0,0,1,3.5,3.3v.2a.22.22,0,0,1-.2.2h-.9a.22.22,0,0,1-.2-.2V103a2.11,2.11,0,0,0-.6-1.6,2.43,2.43,0,0,0-3.2,0,2.11,2.11,0,0,0-.6,1.6v5.7a2.11,2.11,0,0,0,.6,1.6,2.2,2.2,0,0,0,3.8-1.6v-.2a.22.22,0,0,1,.2-.2l.9.1a.22.22,0,0,1,.2.2v.1a3,3,0,0,1-1,2.4,3.49,3.49,0,0,1-2.5.9A2.6,2.6,0,0,1,21.3,111.2Z" transform="translate(-20.3 -21.5)"/><path class="cls-2" d="M37.1,111.9l-.6-2.1a.1.1,0,0,0-.1-.1H32.3a.1.1,0,0,0-.1.1l-.6,2.1a.22.22,0,0,1-.2.2h-.9c-.1,0-.1,0-.1-.1v-.1l3.2-11.7a.22.22,0,0,1,.2-.2h1.1a.22.22,0,0,1,.2.2l3.2,11.7v.1c0,.1-.1.1-.2.1h-.9C37.2,112,37.1,112,37.1,111.9Zm-4.6-3.2h3.7l-1.8-6.9h0l-1.9,6.9Z" transform="translate(-20.3 -21.5)"/><path class="cls-3" d="M43.3,111.9l-3.1-11.7v-.1c0-.1.1-.1.2-.1h.9a.22.22,0,0,1,.2.2L44,110h0l2.5-9.8a.22.22,0,0,1,.2-.2h.9c.1,0,.1,0,.1.1v.1l-3.1,11.7a.22.22,0,0,1-.2.2h-1C43.4,112,43.3,112,43.3,111.9Z" transform="translate(-20.3 -21.5)"/><path class="cls-4" d="M55.9,111.9l-.6-2.1a.1.1,0,0,0-.1-.1H51.1a.1.1,0,0,0-.1.1l-.6,2.1a.22.22,0,0,1-.2.2h-.9c-.1,0-.1,0-.1-.1v-.1l3.2-11.7a.22.22,0,0,1,.2-.2h1.1a.22.22,0,0,1,.2.2l3.2,11.7v.1c0,.1-.1.1-.2.1H56C56,112,56,112,55.9,111.9Zm-4.5-3.2h3.7l-1.8-6.9h0l-1.9,6.9Z" transform="translate(-20.3 -21.5)"/><path class="cls-5" d="M60.8,111.9V100.2a.22.22,0,0,1,.2-.2h.9a.22.22,0,0,1,.2.2v10.7a.1.1,0,0,0,.1.1h5a.22.22,0,0,1,.2.2v.7a.22.22,0,0,1-.2.2H61.1C60.8,112,60.8,112,60.8,111.9Z" transform="translate(-20.3 -21.5)"/><path class="cls-6" d="M71.9,111.7a3.53,3.53,0,0,1-1.4-1.3,4.23,4.23,0,0,1-.5-2v-4.8a4.55,4.55,0,0,1,.5-2,3,3,0,0,1,1.4-1.3,4.66,4.66,0,0,1,4.2,0,3,3,0,0,1,1.4,1.3,3.83,3.83,0,0,1,.5,1.9v.1c0,.1,0,.1-.1.2l-.1.1-2,.1a.22.22,0,0,1-.2-.2v-.2a1.56,1.56,0,0,0-2.6-1.1,1.5,1.5,0,0,0-.4,1.1v5a1.56,1.56,0,0,0,2.6,1.1,1.5,1.5,0,0,0,.4-1.1v-.2a.22.22,0,0,1,.2-.2l2,.1c.1,0,.1,0,.1.1l.1.1v.1a3.83,3.83,0,0,1-.5,1.9,3,3,0,0,1-1.4,1.3,4.65,4.65,0,0,1-2.1.5A6.46,6.46,0,0,1,71.9,111.7Z" transform="translate(-20.3 -21.5)"/><path class="cls-7" d="M81.3,112l-.1-.1V100.3c0-.1,0-.1.1-.1l.1-.1h2c.1,0,.1,0,.1.1l.1.1V110c0,.1,0,.1.1.1h4.6c.1,0,.1,0,.1.1l.1.1V112c0,.1,0,.1-.1.1l-.1.1H81.4Z" transform="translate(-20.3 -21.5)"/><path class="cls-8" d="M93.1,111.7a3.16,3.16,0,0,1-1.4-1.4,4.55,4.55,0,0,1-.5-2v-4.6a4.23,4.23,0,0,1,.5-2,3.76,3.76,0,0,1,1.4-1.4,3.64,3.64,0,0,1,2.1-.5,4.65,4.65,0,0,1,2.1.5,3.16,3.16,0,0,1,1.4,1.4,4.55,4.55,0,0,1,.5,2v4.6a3.94,3.94,0,0,1-.5,2,3.76,3.76,0,0,1-1.4,1.4,4.66,4.66,0,0,1-4.2,0Zm3.2-2.1a1.59,1.59,0,0,0,.4-1.2v-4.7a1.59,1.59,0,0,0-.4-1.2,1.66,1.66,0,0,0-1.2-.5,1.43,1.43,0,0,0-1.1.5,1.59,1.59,0,0,0-.4,1.2v4.7a1.55,1.55,0,0,0,1.5,1.7A1.25,1.25,0,0,0,96.3,109.6Z" transform="translate(-20.3 -21.5)"/><path class="cls-9" d="M104.3,111.7a3.53,3.53,0,0,1-1.4-1.3,4.23,4.23,0,0,1-.5-2v-8.1c0-.1,0-.1.1-.1l.1-.1h2c.1,0,.1,0,.1.1l.1.1v8.3a1.59,1.59,0,0,0,.4,1.2,1.71,1.71,0,0,0,2.2,0,1.59,1.59,0,0,0,.4-1.2v-8.3c0-.1,0-.1.1-.1l.1-.1h2c.1,0,.1,0,.1.1l.1.1v8.1a4.23,4.23,0,0,1-.5,2,3,3,0,0,1-1.4,1.3,4.65,4.65,0,0,1-2.1.5A4.49,4.49,0,0,1,104.3,111.7Z" transform="translate(-20.3 -21.5)"/><path class="cls-10" d="M113.8,112l-.1-.1V100.3c0-.1,0-.1.1-.1l.1-.1h3.7a4.21,4.21,0,0,1,2,.4,4.07,4.07,0,0,1,1.4,1.2,3.45,3.45,0,0,1,.5,1.8v5.1a3.45,3.45,0,0,1-.5,1.8,3.33,3.33,0,0,1-1.4,1.2,4.48,4.48,0,0,1-2,.4h-3.8Zm2.4-2h1.4a1.23,1.23,0,0,0,1-.5,1.59,1.59,0,0,0,.4-1.2v-4.5a1.59,1.59,0,0,0-.4-1.2,1.39,1.39,0,0,0-1-.5h-1.4c-.1,0-.1,0-.1.1l.1,7.8Z" transform="translate(-20.3 -21.5)"/><path class="cls-11" d="M62.1,34.5a18.33,18.33,0,0,1,3.1-3.2c1.7-1.3,4.6-9.8,4.6-9.8s-8,3.7-8.2,7.3A13.69,13.69,0,0,0,62.1,34.5Z" transform="translate(-20.3 -21.5)"/><path class="cls-11" d="M32.9,53.7a15.87,15.87,0,0,0,8.7,10c-4.3-4-10-16.1-3.5-25.1a27.14,27.14,0,0,1,13.7-8.9A24.52,24.52,0,0,0,36.3,73.2c-2.7-4.4-4.8-12.6-3.7-20.8C32.7,52.8,32.8,53.3,32.9,53.7Z" transform="translate(-20.3 -21.5)"/><path class="cls-11" d="M89.6,44.6h-.1A14.7,14.7,0,0,0,75.1,32.4a17.71,17.71,0,0,0-3.6.4c1.8,3,11.9,19.9,12.8,22.4a7.27,7.27,0,0,1-.9,6.3c-.4.7-3,.5-3.7.9-.9.5-.9,1-2.5.1a75.52,75.52,0,0,1-7.1-5.1,2.43,2.43,0,0,1-.9-1.8,2.5,2.5,0,0,1,.4-1.3,5.61,5.61,0,0,0,1.2-3.4,7.11,7.11,0,0,0-.4-2h0l-.1-.1c-.1-.3-.2-.5-.3-.8h0c0,.2.1.4.1.6a7.8,7.8,0,1,1-15.6,0,7.49,7.49,0,0,1,2.6-5.7A6.3,6.3,0,0,0,51,49.2a6,6,0,0,0,.6,2.7c.2.3.5.8.9,1.3,2.4,4.2,13.2,10.5,13.2,20.6,0,9-11,18.5-29.4,4.7,10.5,11.6,20.1,10,43.3,10h10a22,22,0,0,0,0-43.9Z" transform="translate(-20.3 -21.5)"/></svg>