<svg id="Coeur_vide" data-name="Coeur vide" xmlns="http://www.w3.org/2000/svg" width="25" height="25" viewBox="0 0 25 25">
  <g id="Icon_Favorite_Outlined" data-name="Icon / Favorite / Outlined" transform="translate(0 0.078)">
    <rect id="Box" width="25" height="25" transform="translate(0 -0.078)" fill="none"/>
    <path id="Tracé_2085" data-name="Tracé 2085" d="M155.566,18.686l-.1.105-.1-.105c-5.021-4.517-8.264-7.563-8.264-10.609A3.583,3.583,0,0,1,150.754,4.4a4.249,4.249,0,0,1,3.766,2.521h1.988A4.024,4.024,0,0,1,160.273,4.4a3.583,3.583,0,0,1,3.661,3.676C163.83,11.123,160.587,14.169,155.566,18.686Zm4.6-16.386a6.276,6.276,0,0,0-4.707,2.206A6.276,6.276,0,0,0,150.754,2.3,5.684,5.684,0,0,0,145,8.077c0,3.992,3.557,7.248,9,12.08l1.465,1.366,1.465-1.366c5.44-4.937,9-8.193,9-12.08A5.749,5.749,0,0,0,160.169,2.3Z" transform="translate(-143 1)" fill="#fff"/>
  </g>
</svg>
