<?xml version="1.0" encoding="UTF-8"?>
<svg width="44px" height="44px" viewBox="0 0 44 44" version="1.1" xmlns="http://www.w3.org/2000/svg" xmlns:xlink="http://www.w3.org/1999/xlink">
    <!-- Generator: Sketch 64 (93537) - https://sketch.com -->
    <title>iconspace_Home</title>
    <desc>Created with Sketch.</desc>
    <g id="Page-1" stroke="none" stroke-width="1" fill="none" fill-rule="evenodd">
        <g id="Antarmuka_Two-Color-UI-element-1" transform="translate(-50.000000, -50.000000)">
            <g id="iconspace_Home" transform="translate(48.000000, 48.000000)">
                <polygon id="Shape" points="0 0 48 0 48 48 0 48"></polygon>
                <polygon id="Shape" fill="#697D99" fill-rule="nonzero" points="38 10 34 7.4594473 34 2 38 2"></polygon>
                <path d="M38,24 L42,24 L42,21.4826222 L24,8.88262225 L6,21.4826222 L6,24 L10,24 L10,42 L16,42 L16,39.1376992 C16,34.7194212 19.581722,31.1376992 24,31.1376992 C28.418278,31.1376992 32,34.7194212 32,39.1376992 L32,42 L38,42 L38,24 Z M42,46 L28,46 L28,39.1376992 C28,36.9285602 26.209139,35.1376992 24,35.1376992 C21.790861,35.1376992 20,36.9285602 20,39.1376992 L20,46 L6,46 L6,28 L2,28 L2,19.4 L24,4 L46,19.4 L46,28 L42,28 L42,46 Z" id="Shape" fill="#77838F" fill-rule="nonzero"></path>
            </g>
        </g>
    </g>
</svg>