<svg xmlns="http://www.w3.org/2000/svg" width="62.691" height="64" viewBox="0 0 62.691 64">
  <g id="_x35_" transform="translate(-0.655)">
    <path id="Tracé_4" data-name="Tracé 4" d="M62.94,38.309c-2.261,4.164-4.58,6.294-7.088,6.513-1.992.175-3.877-.864-5.639-3.082-.592-.745-1.135-1.456-1.653-2.132-2.641-3.453-4.362-5.7-8.043-6.8L38.624,64,35.7,63.823l1.928-31.771C35,30.967,33.371,28.143,33.3,24.363c-.077-3.991,1.761-8.46,5.425-9.279l.639,2.861c-1.819.406-3.2,3.2-3.134,6.362.044,2.257.906,4.818,3.195,5.237,5.965,1.094,8.392,4.267,11.465,8.284.507.662,1.04,1.359,1.62,2.089q1.667,2.1,3.089,1.986c1.391-.122,3.084-1.894,4.766-4.992,1.319-2.429-6.392-15.059-14.421-25.331L44.867,10.2l1.541-.821c2.547-1.355,3.718-4.232,4.235-6.149a17.006,17.006,0,0,0-8.684,5.235l-.561.613-.814-.167c-3.749-.765-10.792.02-10.861.027-9.06,1.276-15.233,7.55-18.145,11.242l10.794-1.73L17.53,22.032A30.458,30.458,0,0,0,7.017,40.354L15.662,37.4l-1.751,3.281c-.277.519-6.84,12.748-11.7,15.787L.655,53.977c2.634-1.645,6.35-7.259,8.783-11.354L3.667,44.6l.167-2.217a32.61,32.61,0,0,1,8.376-19.33L5.587,24.114,7.118,21.45C7.432,20.9,14.969,8.06,29.352,6.036a53.085,53.085,0,0,1,11-.133A18.752,18.752,0,0,1,52.452.028L54.089,0l-.153,1.629c-.026.275-.623,6.15-4.714,9.4C54.175,17.485,65.64,33.333,62.94,38.309ZM49.875,21.191,49.3,18.317l-4.127.831.578,2.874Z" fill="#6a80b9"/>
  </g>
</svg>
