<svg xmlns="http://www.w3.org/2000/svg" width="54.41" height="64" viewBox="0 0 54.41 64">
  <g id="_x31_5" transform="translate(-4.795)">
    <path id="Tracé_9" data-name="Tracé 9" d="M54.31,12.327c-.03,0-.142.007-.171.009A7.46,7.46,0,0,1,46.769,4.9a4.906,4.906,0,0,0-4.9-4.9H22.136a4.9,4.9,0,0,0-4.9,4.905,7.458,7.458,0,0,1-7.376,7.429c-.03,0-.135-.007-.165-.007a4.911,4.911,0,0,0-4.905,4.905V46.76A4.9,4.9,0,0,0,7.33,51.049l22.3,12.335a4.892,4.892,0,0,0,4.751,0l22.3-12.335A4.893,4.893,0,0,0,59.2,46.759V17.231A4.9,4.9,0,0,0,54.31,12.327Zm2.495,34.432a2.492,2.492,0,0,1-1.289,2.189l-22.3,12.338a2.529,2.529,0,0,1-2.42,0L8.49,48.946a2.5,2.5,0,0,1-1.3-2.187V17.231a2.5,2.5,0,0,1,2.491-2.5h0c.062.005.13.009.2.009h0A9.868,9.868,0,0,0,19.642,4.9a2.5,2.5,0,0,1,2.5-2.5H41.874a2.5,2.5,0,0,1,2.495,2.5,9.871,9.871,0,0,0,9.759,9.832c.06,0,.125,0,.206-.009a2.5,2.5,0,0,1,2.472,2.5V46.759ZM52.917,18.4A16.673,16.673,0,0,1,40.5,6.061a1.2,1.2,0,0,0-1.168-.924H24.682a1.2,1.2,0,0,0-1.168.924A16.673,16.673,0,0,1,11.092,18.4a1.2,1.2,0,0,0-.932,1.17v26.1a1.2,1.2,0,0,0,.62,1.05L31.42,58.13a1.2,1.2,0,0,0,1.162,0L53.231,46.715a1.2,1.2,0,0,0,.62-1.05v-26.1A1.2,1.2,0,0,0,52.917,18.4ZM32,55.708,19.2,48.631c1.635-1.971,3.364-5.1,3.364-7.6a26.525,26.525,0,0,1,1.5-8.2,4.131,4.131,0,0,0,1.659,2.243l.755-1.411c-.646-.345-1.161-1.935-1.4-3.222a10.9,10.9,0,0,1,.575-1,4.748,4.748,0,0,0,1.708,2.951l.83-1.369c-.611-.37-1.032-1.918-1.208-3.2a10.764,10.764,0,0,1,1.073-.964,4.777,4.777,0,0,0,1.348,3.162l.986-1.26c-.5-.393-.743-1.7-.805-2.9a10.631,10.631,0,0,1,6.657-1.076l.677.151.469-.512a8.913,8.913,0,0,1,3.716-2.475,4.256,4.256,0,0,1-1.832,2.318l-1.262.672.881,1.127c4.5,5.76,8.091,11.9,7.688,13.118-1.2,2.207-2.006,2.44-2.225,2.46-.471.025-1.01-.552-1.294-.91-.309-.389-.594-.761-.864-1.114-1.7-2.222-3.044-3.978-6.4-4.593-1.266-.232-1.365-2.046-1.372-2.407-.027-1.453.593-2.824,1.356-2.994l-.524-2.343c-2.18.487-3.276,3.076-3.232,5.383a4.809,4.809,0,0,0,2.3,4.367L33.245,55.02ZM51.448,44.956,35.732,53.644,36.7,37.752c1.508.593,2.326,1.662,3.6,3.324.279.364.572.748.891,1.149a3.929,3.929,0,0,0,3.383,1.807c1.493-.13,2.843-1.342,4.126-3.705,1.463-2.695-3.525-10.019-7.145-14.757a8.648,8.648,0,0,0,2.369-5.055l.125-1.334L42.7,19.2a10.449,10.449,0,0,0-6.623,3.125,12.914,12.914,0,0,0-12.1,5.313c-2.389,3.23-3.816,9.342-3.816,13.386,0,1.9-1.69,4.835-3.109,6.417l-4.5-2.488V20.5A19.113,19.113,0,0,0,25.606,7.538H38.4A19.113,19.113,0,0,0,51.448,20.5V44.956ZM39.2,31.81l-.474-2.354,2.211-.445.474,2.354Z" fill="#6a80b9"/>
  </g>
</svg>
