<?xml version="1.0" encoding="UTF-8"?>
<svg width="44px" height="28px" viewBox="0 0 44 28" version="1.1" xmlns="http://www.w3.org/2000/svg" xmlns:xlink="http://www.w3.org/1999/xlink">
    <!-- Generator: Sketch 64 (93537) - https://sketch.com -->
    <title>Iconspace_Seen</title>
    <desc>Created with Sketch.</desc>
    <g id="Page-1" stroke="none" stroke-width="1" fill="none" fill-rule="evenodd">
        <g id="Antarmuka_One-Color-UI-element-3" transform="translate(-530.000000, -346.000000)">
            <g id="Iconspace_Seen" transform="translate(528.000000, 336.000000)">
                <polygon id="Shape" points="0 0 48 0 48 48 0 48"></polygon>
                <path d="M24,38 C16.1189068,38 9.05317711,33.6650905 2.87285624,25.19609 L2,24 L2.87285624,22.80391 C9.05317711,14.3349095 16.1189068,10 24,10 C31.8810932,10 38.9468229,14.3349095 45.1271438,22.80391 L46,24 L45.1271438,25.19609 C38.9468229,33.6650905 31.8810932,38 24,38 Z M24,34 C30.1669325,34 35.8437605,30.7232541 41.0896968,24 C35.8437605,17.2767459 30.1669325,14 24,14 C17.8330675,14 12.1562395,17.2767459 6.91030316,24 C12.1562395,30.7232541 17.8330675,34 24,34 Z" id="Shape" fill="#77838F" fill-rule="nonzero"></path>
                <path d="M24,30 C20.6862915,30 18,27.3137085 18,24 C18,20.6862915 20.6862915,18 24,18 C27.3137085,18 30,20.6862915 30,24 C30,27.3137085 27.3137085,30 24,30 Z M24,26 C25.1045695,26 26,25.1045695 26,24 C26,22.8954305 25.1045695,22 24,22 C22.8954305,22 22,22.8954305 22,24 C22,25.1045695 22.8954305,26 24,26 Z" id="Shape" fill="#77838F" fill-rule="nonzero"></path>
            </g>
        </g>
    </g>
</svg>