<?xml version="1.0" encoding="UTF-8"?>
<svg width="44px" height="36px" viewBox="0 0 44 36" version="1.1" xmlns="http://www.w3.org/2000/svg" xmlns:xlink="http://www.w3.org/1999/xlink">
    <!-- Generator: Sketch 64 (93537) - https://sketch.com -->
    <title>iconspace_Camera</title>
    <desc>Created with Sketch.</desc>
    <g id="Page-1" stroke="none" stroke-width="1" fill="none" fill-rule="evenodd">
        <g id="Antarmuka_Two-Color-UI-element-1" transform="translate(-242.000000, -150.000000)">
            <g id="iconspace_Camera" transform="translate(240.000000, 144.000000)">
                <polygon id="Shape" points="0 0 48 0 48 48 0 48"></polygon>
                <path d="M6,16 L6,38 L42,38 L42,16 L32.9296325,16 L28.9296325,10 L19.0703675,10 L15.0703675,16 L6,16 Z M35.0703675,12 L46,12 L46,42 L2,42 L2,12 L12.9296325,12 L16.9296325,6 L31.0703675,6 L35.0703675,12 Z" id="Shape" fill="#77838F" fill-rule="nonzero"></path>
                <path d="M24,34 C19.581722,34 16,30.418278 16,26 C16,21.581722 19.581722,18 24,18 C28.418278,18 32,21.581722 32,26 C32,30.418278 28.418278,34 24,34 Z M24,30 C26.209139,30 28,28.209139 28,26 C28,23.790861 26.209139,22 24,22 C21.790861,22 20,23.790861 20,26 C20,28.209139 21.790861,30 24,30 Z" id="Shape" fill="#77838F" fill-rule="nonzero"></path>
            </g>
        </g>
    </g>
</svg>