<?xml version="1.0" encoding="UTF-8"?>
<svg width="40px" height="44px" viewBox="0 0 40 44" version="1.1" xmlns="http://www.w3.org/2000/svg" xmlns:xlink="http://www.w3.org/1999/xlink">
    <!-- Generator: Sketch 64 (93537) - https://sketch.com -->
    <title>iconspace_Trash</title>
    <desc>Created with Sketch.</desc>
    <g id="Page-1" stroke="none" stroke-width="1" fill="none" fill-rule="evenodd">
        <g id="Antarmuka_Two-Color-UI-element-1" transform="translate(-244.000000, -50.000000)">
            <g id="iconspace_Trash" transform="translate(240.000000, 48.000000)">
                <polygon id="Shape" points="0 0 48 0 48 48 0 48"></polygon>
                <path d="M27.2251482,8 L26.5584816,6 L21.4415184,6 L20.7748518,8 L27.2251482,8 L27.2251482,8 Z M8,12 L4,12 L4,8 L16.5584816,8 L18.5584816,2 L29.4415184,2 L31.4415184,8 L44,8 L44,12 L40,12 L40,46 L8,46 L8,12 Z M12,12 L12,42 L36,42 L36,12 L12,12 L12,12 Z" id="Shape" fill="#77838F" fill-rule="nonzero"></path>
                <path d="M18,22 L22,22 L22,32 L18,32 L18,22 Z M26,22 L30,22 L30,32 L26,32 L26,22 Z" id="Shape" fill="#697D99" fill-rule="nonzero"></path>
            </g>
        </g>
    </g>
</svg>